<svg xmlns="http://www.w3.org/2000/svg" viewBox="0 0 431.5 431.5">
  <path fill="#27ae60" d="M371 231c.3-.3.3-.9 0-1.2l-6.2-6.2c-1.9-1.9-4.9-1.9-6.8 0-1.9 1.9-1.9 4.9 0 6.8-1.9 1.9-1.9 4.9 0 6.8 1.9 1.9 4.9 1.9 6.8 0l6.2-6.2zM373.6 232.5c-.3-.3-.9-.3-1.2 0l-6.2 6.2c-1.9 1.9-1.9 4.9 0 6.8 1.9 1.9 4.9 1.9 6.8 0 1.9 1.9 4.9 1.9 6.8 0 1.9-1.9 1.9-4.9 0-6.8l-6.2-6.2zM388.1 223.7c-1.9-1.9-4.9-1.9-6.8 0l-6.2 6.2c-.3.3-.3.9 0 1.2l6.2 6.2c1.9 1.9 4.9 1.9 6.8 0 1.9-1.9 1.9-4.9 0-6.8 1.9-1.9 1.9-5 0-6.8zM372.4 228.4c.3.3.9.3 1.2 0l6.2-6.2c1.9-1.9 1.9-4.9 0-6.8-1.9-1.9-4.9-1.9-6.8 0-1.9-1.9-4.9-1.9-6.8 0-1.9 1.9-1.9 4.9 0 6.8.2.1 4.6 4.5 6.2 6.2z" />
  <path fill="#233838" d="M178 282c0 18.6 13.5 35.3 37.5 35.3 18.8 0 28.9-11.1 28.9-11.1l-8.2-15.8s-9 8.1-18.4 8.1c-11.4 0-16.9-8.8-16.9-16.7 0-8 5.4-16.1 16.1-16.1 9.3 0 15.8 6.5 15.8 6.5l9.5-15.2s-8.5-10.2-26.8-10.2c-24.2 0-37.5 17.1-37.5 35.2zM244.6 307.4s10.1 9.9 26.9 9.9c17.4 0 27.6-9.8 27.6-21.3 0-21.7-31.5-22.5-31.5-27.6 0-2.4 3.3-3.3 6.7-3.3 9.4 0 16 5.5 16 5.5l7.7-16.1s-8-7.7-23.7-7.7c-15.6 0-27.7 7.8-27.7 20.5 0 22 31.5 22.6 31.5 28.5 0 2.2-3.3 3.1-6.7 3.1-9.7 0-17.1-6.8-17.1-6.8l-9.7 15.3zM300.9 307.4s10.1 9.9 26.9 9.9c17.4 0 27.6-9.8 27.6-21.3 0-21.7-31.5-22.5-31.5-27.6 0-2.4 3.3-3.3 6.7-3.3 9.4 0 16 5.5 16 5.5l7.7-16.1s-8-7.7-23.7-7.7c-15.6 0-27.7 7.8-27.7 20.5 0 22 31.5 22.6 31.5 28.5 0 2.2-3.3 3.1-6.7 3.1-9.7 0-17.1-6.8-17.1-6.8l-9.7 15.3z" />
  <path fill="#27ae60" d="M42 182.9c0 22.6 12.8 25.5 24.9 25.5 3.7 0 6.8-.4 6.8-.4v-19.6s-1.3.1-2.7.1c-5.1 0-6.3-2.2-6.3-8.6v-65.7H42v68.7zM79 184.1c0 19 10.6 25.2 23.9 25.2 9 0 17.4-4.4 21.1-11.6h.3s-.3 2-.3 4.2v5.9h21.7v-67.4h-22.6v29.8c0 10.1-4.6 18.6-14.3 18.6-4.7 0-7.2-2.6-7.2-8.9v-39.5H79v43.7zM152.3 174c0 18.6 13.5 35.3 37.5 35.3 18.8 0 28.9-11.1 28.9-11.1l-8.2-15.8s-9 8.1-18.4 8.1c-11.4 0-16.9-8.8-16.9-16.7 0-8 5.4-16.1 16.1-16.1 9.3 0 15.8 6.5 15.8 6.5l9.5-15.2s-8.5-10.2-26.8-10.2c-24.2 0-37.5 17.1-37.5 35.2zM224.1 207.7h22.6v-26.1h7.1l14.3 26.2h25.8l-22.5-36.5v-.3l19.8-30.6h-24.6l-13.4 22.2h-6.4v-48.4h-22.6l-.1 93.5z" />
  <path fill="#27ae60" d="M289 230.5s6.8 4.7 15.7 4.7c10.7 0 22.5-5.2 28.1-20.3l27.6-74.6h-24.7l-8.5 31.4c-.9 3.7-2.2 10.1-2.2 10.1h-.3s-1.3-6.8-2.5-10.5l-9.9-31h-25.6l28.6 66.1-1.3 3.2c-2.4 5.8-7.2 6.8-10.9 6.8-3.3 0-6.9-2.5-6.9-2.5l-7.2 16.6z" />
</svg>
