<svg xmlns="http://www.w3.org/2000/svg" viewBox="0 0 792 296.8">
  <path fill="#27ae60" d="M666 96c.3-.3.3-1 0-1.3l-6.8-6.8c-2.1-2.1-5.4-2.1-7.5 0-2.1 2.1-2.1 5.4 0 7.5-2.1 2.1-2.1 5.4 0 7.5 2.1 2.1 5.4 2.1 7.5 0 0-.1 6.8-6.9 6.8-6.9zM668.9 97.7c-.3-.3-1-.3-1.3 0l-6.8 6.8c-2.1 2.1-2.1 5.4 0 7.5 2.1 2.1 5.4 2.1 7.5 0 2.1 2.1 5.4 2.1 7.5 0 2.1-2.1 2.1-5.4 0-7.5l-6.9-6.8zM684.8 88c-2.1-2.1-5.4-2.1-7.5 0l-6.8 6.8c-.3.3-.3 1 0 1.3l6.8 6.8c2.1 2.1 5.4 2.1 7.5 0 2.1-2.1 2.1-5.4 0-7.5 2.1-2 2.1-5.4 0-7.4zM667.6 93.2c.3.3 1 .3 1.3 0l6.8-6.8c2.1-2.1 2.1-5.4 0-7.5-2.1-2.1-5.4-2.1-7.5 0-2.1-2.1-5.4-2.1-7.5 0-2.1 2.1-2.1 5.4 0 7.5.3.1 5.1 4.9 6.9 6.8z" />
  <path fill="#233838" d="M453.7 152.1c0 20.5 14.8 38.8 41.2 38.8 20.7 0 31.8-12.2 31.8-12.2l-9-17.4s-9.9 8.9-20.2 8.9c-12.5 0-18.6-9.7-18.6-18.4 0-8.8 5.9-17.7 17.7-17.7 10.2 0 17.4 7.1 17.4 7.1l10.4-16.7s-9.3-11.2-29.5-11.2c-26.5.1-41.2 18.9-41.2 38.8zM527 180.1s11.1 10.9 29.6 10.9c19.1 0 30.4-10.8 30.4-23.4 0-23.9-34.6-24.7-34.6-30.4 0-2.6 3.6-3.6 7.4-3.6 10.3 0 17.6 6 17.6 6l8.5-17.7s-8.8-8.5-26.1-8.5c-17.2 0-30.5 8.6-30.5 22.5 0 24.2 34.6 24.9 34.6 31.3 0 2.4-3.6 3.4-7.4 3.4-10.7 0-18.8-7.5-18.8-7.5l-10.7 17zM588.9 180.1S600 191 618.5 191c19.1 0 30.4-10.8 30.4-23.4 0-23.9-34.6-24.7-34.6-30.4 0-2.6 3.6-3.6 7.4-3.6 10.3 0 17.6 6 17.6 6l8.5-17.7s-8.8-8.5-26.1-8.5c-17.2 0-30.5 8.6-30.5 22.5 0 24.2 34.6 24.9 34.6 31.3 0 2.4-3.6 3.4-7.4 3.4-10.7 0-18.8-7.5-18.8-7.5l-10.7 17z" />
  <path fill="#27ae60" d="M105.6 161.9c0 24.9 14.1 28 27.4 28 4.1 0 7.5-.4 7.5-.4V168s-1.4.1-3 .1c-5.6 0-6.9-2.4-6.9-9.5V86.3h-25v75.6zM146.3 163.2c0 20.9 11.7 27.7 26.3 27.7 9.9 0 19.1-4.8 23.2-12.8h.3s-.3 2.2-.3 4.6v6.5h23.9v-74.1h-24.9v32.8c0 11.1-5.1 20.5-15.7 20.5-5.2 0-7.9-2.9-7.9-9.8v-43.4h-24.9v48zM226.9 152.1c0 20.5 14.8 38.8 41.2 38.8 20.7 0 31.8-12.2 31.8-12.2l-9-17.4s-9.9 8.9-20.2 8.9c-12.5 0-18.6-9.7-18.6-18.4 0-8.8 5.9-17.7 17.7-17.7 10.2 0 17.4 7.1 17.4 7.1l10.4-16.7s-9.3-11.2-29.5-11.2c-26.6.1-41.2 18.9-41.2 38.8zM305.9 189.2h24.9v-28.7h7.8l15.7 28.8h28.4L358 149.2v-.3l21.8-33.7h-27.1L338 139.6h-7V86.3h-25l-.1 102.9z" />
  <path fill="#27ae60" d="M377.3 214.3s7.5 5.2 17.3 5.2c11.8 0 24.7-5.7 30.9-22.3l30.4-82.1h-27.2l-9.3 34.5c-1 4.1-2.4 11.1-2.4 11.1h-.3s-1.4-7.5-2.7-11.5l-10.9-34.1h-28.2l31.5 72.7-1.4 3.5c-2.6 6.4-7.9 7.5-12 7.5-3.6 0-7.6-2.7-7.6-2.7l-8.1 18.2z" />
</svg>
